# xmcd
#
# Track frame offsets: 
#        150
#        14905
#        29510
#        44042
#        63595
#        82870
#        93860
#        110672
#        122992
#        139637
#        156597
#        173967
#        189950
#        209887
#        221295
#        236872
#
# Disc length: 3321 seconds
#
# Revision: 1
# Processed by: cddbd v1.5.2PL0 Copyright (c) Steve Scherf et al.
# Submitted via: ExactAudioCopyFreeDBPlugin 1.0
#
DISCID=f40cf710
DTITLE=Townes Van Zandt - The Very Best of Townes Van Zandt [CD2]
DYEAR=2002
DGENRE=Country
TTITLE0=To Live is to Fly
TTITLE1=No Deal
TTITLE2=High, Low, and In Between
TTITLE3=No Lonesome Tune
TTITLE4=Sad Cinderella
TTITLE5=Don't Let the Sunshine Fool Ya'
TTITLE6=Honky Tonkin'
TTITLE7=Snow Don't Fall
TTITLE8=Pancho and Lefty
TTITLE9=If I Needed You
TTITLE10=Loretta
TTITLE11=No Place to Fall
TTITLE12=Flyin' Shoes
TTITLE13=Talking Thunderbird Blues (live)
TTITLE14=Cocaine Blues (live)
TTITLE15=Only Him or Me (live)
EXTD=
EXTT0=
EXTT1=
EXTT2=
EXTT3=
EXTT4=
EXTT5=
EXTT6=
EXTT7=
EXTT8=
EXTT9=
EXTT10=
EXTT11=
EXTT12=
EXTT13=
EXTT14=
EXTT15=
PLAYORDER=
